<mxfile host="app.diagrams.net" modified="2022-04-26T17:56:33.717Z" agent="5.0 (Windows NT 10.0; Win64; x64) AppleWebKit/537.36 (KHTML, like Gecko) Chrome/100.0.4896.127 Safari/537.36" etag="AWAjBzVFW8wO-6O8P_By" version="17.4.6" type="github">
  <diagram id="EqOlyrcISyoJ_15v_Tb-" name="Page-1">
    <mxGraphModel dx="1422" dy="762" grid="1" gridSize="10" guides="1" tooltips="1" connect="1" arrows="1" fold="1" page="1" pageScale="1" pageWidth="1169" pageHeight="827" math="0" shadow="0">
      <root>
        <mxCell id="0" />
        <mxCell id="1" parent="0" />
        <mxCell id="GZktZaGZKVXw7CDrwjzT-3" value="" style="edgeStyle=orthogonalEdgeStyle;rounded=0;orthogonalLoop=1;jettySize=auto;html=1;" edge="1" parent="1" source="GZktZaGZKVXw7CDrwjzT-1" target="GZktZaGZKVXw7CDrwjzT-2">
          <mxGeometry relative="1" as="geometry" />
        </mxCell>
        <mxCell id="GZktZaGZKVXw7CDrwjzT-13" value="" style="edgeStyle=orthogonalEdgeStyle;rounded=0;orthogonalLoop=1;jettySize=auto;html=1;" edge="1" parent="1" source="GZktZaGZKVXw7CDrwjzT-12" target="GZktZaGZKVXw7CDrwjzT-1">
          <mxGeometry relative="1" as="geometry" />
        </mxCell>
        <mxCell id="GZktZaGZKVXw7CDrwjzT-1" value="CAD" style="rounded=1;whiteSpace=wrap;html=1;" vertex="1" parent="1">
          <mxGeometry x="80" y="270" width="120" height="60" as="geometry" />
        </mxCell>
        <mxCell id="GZktZaGZKVXw7CDrwjzT-5" value="" style="edgeStyle=orthogonalEdgeStyle;rounded=0;orthogonalLoop=1;jettySize=auto;html=1;" edge="1" parent="1" source="GZktZaGZKVXw7CDrwjzT-2" target="GZktZaGZKVXw7CDrwjzT-4">
          <mxGeometry relative="1" as="geometry" />
        </mxCell>
        <mxCell id="GZktZaGZKVXw7CDrwjzT-15" value="" style="edgeStyle=orthogonalEdgeStyle;rounded=0;orthogonalLoop=1;jettySize=auto;html=1;" edge="1" parent="1" source="GZktZaGZKVXw7CDrwjzT-14" target="GZktZaGZKVXw7CDrwjzT-2">
          <mxGeometry relative="1" as="geometry" />
        </mxCell>
        <mxCell id="GZktZaGZKVXw7CDrwjzT-2" value="MESH" style="rounded=1;whiteSpace=wrap;html=1;" vertex="1" parent="1">
          <mxGeometry x="280" y="270" width="120" height="60" as="geometry" />
        </mxCell>
        <mxCell id="GZktZaGZKVXw7CDrwjzT-7" value="" style="edgeStyle=orthogonalEdgeStyle;rounded=0;orthogonalLoop=1;jettySize=auto;html=1;" edge="1" parent="1" source="GZktZaGZKVXw7CDrwjzT-4" target="GZktZaGZKVXw7CDrwjzT-6">
          <mxGeometry relative="1" as="geometry" />
        </mxCell>
        <mxCell id="GZktZaGZKVXw7CDrwjzT-17" value="" style="edgeStyle=orthogonalEdgeStyle;rounded=0;orthogonalLoop=1;jettySize=auto;html=1;" edge="1" parent="1" source="GZktZaGZKVXw7CDrwjzT-16" target="GZktZaGZKVXw7CDrwjzT-4">
          <mxGeometry relative="1" as="geometry" />
        </mxCell>
        <mxCell id="GZktZaGZKVXw7CDrwjzT-4" value="SCENARIO" style="rounded=1;whiteSpace=wrap;html=1;" vertex="1" parent="1">
          <mxGeometry x="480" y="270" width="120" height="60" as="geometry" />
        </mxCell>
        <mxCell id="GZktZaGZKVXw7CDrwjzT-9" value="" style="edgeStyle=orthogonalEdgeStyle;rounded=0;orthogonalLoop=1;jettySize=auto;html=1;" edge="1" parent="1" source="GZktZaGZKVXw7CDrwjzT-6" target="GZktZaGZKVXw7CDrwjzT-8">
          <mxGeometry relative="1" as="geometry" />
        </mxCell>
        <mxCell id="GZktZaGZKVXw7CDrwjzT-19" value="" style="edgeStyle=orthogonalEdgeStyle;rounded=0;orthogonalLoop=1;jettySize=auto;html=1;" edge="1" parent="1" source="GZktZaGZKVXw7CDrwjzT-18" target="GZktZaGZKVXw7CDrwjzT-6">
          <mxGeometry relative="1" as="geometry" />
        </mxCell>
        <mxCell id="GZktZaGZKVXw7CDrwjzT-6" value="RESULTS" style="rounded=1;whiteSpace=wrap;html=1;" vertex="1" parent="1">
          <mxGeometry x="680" y="270" width="120" height="60" as="geometry" />
        </mxCell>
        <mxCell id="GZktZaGZKVXw7CDrwjzT-11" value="" style="edgeStyle=orthogonalEdgeStyle;rounded=0;orthogonalLoop=1;jettySize=auto;html=1;" edge="1" parent="1" source="GZktZaGZKVXw7CDrwjzT-8" target="GZktZaGZKVXw7CDrwjzT-10">
          <mxGeometry relative="1" as="geometry" />
        </mxCell>
        <mxCell id="GZktZaGZKVXw7CDrwjzT-21" value="" style="edgeStyle=orthogonalEdgeStyle;rounded=0;orthogonalLoop=1;jettySize=auto;html=1;" edge="1" parent="1" source="GZktZaGZKVXw7CDrwjzT-20" target="GZktZaGZKVXw7CDrwjzT-8">
          <mxGeometry relative="1" as="geometry" />
        </mxCell>
        <mxCell id="GZktZaGZKVXw7CDrwjzT-8" value="DATA BASE" style="rounded=1;whiteSpace=wrap;html=1;" vertex="1" parent="1">
          <mxGeometry x="880" y="270" width="120" height="60" as="geometry" />
        </mxCell>
        <mxCell id="GZktZaGZKVXw7CDrwjzT-10" value="EXTERNAL LOADS" style="rounded=1;whiteSpace=wrap;html=1;" vertex="1" parent="1">
          <mxGeometry x="1080" y="270" width="120" height="60" as="geometry" />
        </mxCell>
        <mxCell id="GZktZaGZKVXw7CDrwjzT-12" value="CATIA" style="ellipse;whiteSpace=wrap;html=1;rounded=1;" vertex="1" parent="1">
          <mxGeometry x="80" y="130" width="120" height="60" as="geometry" />
        </mxCell>
        <mxCell id="GZktZaGZKVXw7CDrwjzT-14" value="PowerDELTA" style="ellipse;whiteSpace=wrap;html=1;rounded=1;" vertex="1" parent="1">
          <mxGeometry x="280" y="130" width="120" height="60" as="geometry" />
        </mxCell>
        <mxCell id="GZktZaGZKVXw7CDrwjzT-16" value="PowerCASE" style="ellipse;whiteSpace=wrap;html=1;rounded=1;" vertex="1" parent="1">
          <mxGeometry x="480" y="130" width="120" height="60" as="geometry" />
        </mxCell>
        <mxCell id="GZktZaGZKVXw7CDrwjzT-18" value="PowerVIZ" style="ellipse;whiteSpace=wrap;html=1;rounded=1;" vertex="1" parent="1">
          <mxGeometry x="680" y="130" width="120" height="60" as="geometry" />
        </mxCell>
        <mxCell id="GZktZaGZKVXw7CDrwjzT-20" value="MySQL" style="ellipse;whiteSpace=wrap;html=1;rounded=1;" vertex="1" parent="1">
          <mxGeometry x="880" y="130" width="120" height="60" as="geometry" />
        </mxCell>
      </root>
    </mxGraphModel>
  </diagram>
</mxfile>
